<mxfile host="app.diagrams.net" modified="2022-07-26T12:41:35.287Z" agent="5.0 (Macintosh; Intel Mac OS X 10_15_7) AppleWebKit/537.36 (KHTML, like Gecko) Chrome/103.0.0.0 Safari/537.36" etag="SAE06TpLPbfOYsb173hV" version="20.2.0" type="github">
  <diagram id="NH9Rcd0-bQHnQ1PIjfr9" name="第 1 页">
    <mxGraphModel dx="1051" dy="682" grid="1" gridSize="10" guides="1" tooltips="1" connect="1" arrows="1" fold="1" page="1" pageScale="1" pageWidth="827" pageHeight="1169" math="0" shadow="0">
      <root>
        <mxCell id="0" />
        <mxCell id="1" parent="0" />
        <mxCell id="ZGJbccH_P31ADj-CB3RW-1" value="&lt;b&gt;.vue文件&lt;/b&gt;" style="rounded=0;whiteSpace=wrap;html=1;sketch=1;hachureGap=4;fontFamily=Architects Daughter;fontSource=https%3A%2F%2Ffonts.googleapis.com%2Fcss%3Ffamily%3DArchitects%2BDaughter;fontSize=20;fontColor=#095C86;strokeColor=#AF45ED;fillColor=#F694C1;" vertex="1" parent="1">
          <mxGeometry x="30" y="60" width="120" height="60" as="geometry" />
        </mxCell>
        <mxCell id="ZGJbccH_P31ADj-CB3RW-2" value="&lt;b&gt;页面视图&lt;/b&gt;" style="rounded=0;whiteSpace=wrap;html=1;sketch=1;hachureGap=4;fontFamily=Architects Daughter;fontSource=https%3A%2F%2Ffonts.googleapis.com%2Fcss%3Ffamily%3DArchitects%2BDaughter;fontSize=20;fontColor=#095C86;strokeColor=#AF45ED;fillColor=#F694C1;" vertex="1" parent="1">
          <mxGeometry x="30" y="390" width="120" height="60" as="geometry" />
        </mxCell>
        <mxCell id="ZGJbccH_P31ADj-CB3RW-3" value="" style="endArrow=classic;html=1;rounded=0;sketch=1;hachureGap=4;fontFamily=Architects Daughter;fontSource=https%3A%2F%2Ffonts.googleapis.com%2Fcss%3Ffamily%3DArchitects%2BDaughter;fontSize=16;fontColor=#095C86;startSize=14;endSize=14;sourcePerimeterSpacing=8;targetPerimeterSpacing=8;strokeColor=#60E696;fillColor=#F694C1;curved=1;" edge="1" parent="1">
          <mxGeometry relative="1" as="geometry">
            <mxPoint x="90" y="130" as="sourcePoint" />
            <mxPoint x="90" y="380" as="targetPoint" />
            <Array as="points">
              <mxPoint x="100" y="220" />
            </Array>
          </mxGeometry>
        </mxCell>
        <mxCell id="ZGJbccH_P31ADj-CB3RW-4" value="一些处理过程" style="edgeLabel;resizable=0;html=1;align=center;verticalAlign=middle;sketch=1;hachureGap=4;fontFamily=Architects Daughter;fontSource=https%3A%2F%2Ffonts.googleapis.com%2Fcss%3Ffamily%3DArchitects%2BDaughter;fontSize=20;fontColor=#095C86;strokeColor=#AF45ED;fillColor=#F694C1;" connectable="0" vertex="1" parent="ZGJbccH_P31ADj-CB3RW-3">
          <mxGeometry relative="1" as="geometry">
            <mxPoint x="12" y="-19" as="offset" />
          </mxGeometry>
        </mxCell>
        <mxCell id="ZGJbccH_P31ADj-CB3RW-5" value="" style="shape=curlyBracket;whiteSpace=wrap;html=1;rounded=1;sketch=1;hachureGap=4;fontFamily=Architects Daughter;fontSource=https%3A%2F%2Ffonts.googleapis.com%2Fcss%3Ffamily%3DArchitects%2BDaughter;fontSize=20;fontColor=#095C86;strokeColor=#AF45ED;fillColor=#F694C1;" vertex="1" parent="1">
          <mxGeometry x="170" y="40" width="20" height="390" as="geometry" />
        </mxCell>
        <mxCell id="ZGJbccH_P31ADj-CB3RW-7" value="&lt;span style=&quot;color: rgb(9, 92, 134);&quot;&gt;&lt;b&gt;&amp;nbsp;1. 提取出原生HTML和非原生HTML&lt;/b&gt;&lt;/span&gt;" style="rounded=1;whiteSpace=wrap;html=1;sketch=1;hachureGap=4;fontFamily=Architects Daughter;fontSource=https%3A%2F%2Ffonts.googleapis.com%2Fcss%3Ffamily%3DArchitects%2BDaughter;fontSize=14;strokeColor=#6c8ebf;fillColor=#dae8fc;align=left;" vertex="1" parent="1">
          <mxGeometry x="210" y="60" width="300" height="40" as="geometry" />
        </mxCell>
        <mxCell id="ZGJbccH_P31ADj-CB3RW-8" value="&lt;font color=&quot;#095c86&quot;&gt;&lt;b&gt;&amp;nbsp;2. 经过render函数处理&lt;/b&gt;&lt;/font&gt;" style="rounded=1;whiteSpace=wrap;html=1;sketch=1;hachureGap=4;fontFamily=Architects Daughter;fontSource=https%3A%2F%2Ffonts.googleapis.com%2Fcss%3Ffamily%3DArchitects%2BDaughter;fontSize=14;strokeColor=#6c8ebf;fillColor=#dae8fc;align=left;" vertex="1" parent="1">
          <mxGeometry x="210" y="130" width="300" height="40" as="geometry" />
        </mxCell>
        <mxCell id="ZGJbccH_P31ADj-CB3RW-9" value="&lt;font color=&quot;#095c86&quot;&gt;&lt;b&gt;&amp;nbsp;3. render函数将对应的模板内容生成VNode&lt;/b&gt;&lt;/font&gt;" style="rounded=1;whiteSpace=wrap;html=1;sketch=1;hachureGap=4;fontFamily=Architects Daughter;fontSource=https%3A%2F%2Ffonts.googleapis.com%2Fcss%3Ffamily%3DArchitects%2BDaughter;fontSize=14;strokeColor=#6c8ebf;fillColor=#dae8fc;align=left;" vertex="1" parent="1">
          <mxGeometry x="210" y="200" width="300" height="40" as="geometry" />
        </mxCell>
        <mxCell id="ZGJbccH_P31ADj-CB3RW-10" value="&lt;font color=&quot;#095c86&quot;&gt;&lt;b&gt;&amp;nbsp;4. VNode通过diff算法更新到视图VNode&lt;/b&gt;&lt;/font&gt;" style="rounded=1;whiteSpace=wrap;html=1;sketch=1;hachureGap=4;fontFamily=Architects Daughter;fontSource=https%3A%2F%2Ffonts.googleapis.com%2Fcss%3Ffamily%3DArchitects%2BDaughter;fontSize=14;strokeColor=#6c8ebf;fillColor=#dae8fc;align=left;" vertex="1" parent="1">
          <mxGeometry x="210" y="310" width="300" height="40" as="geometry" />
        </mxCell>
        <mxCell id="ZGJbccH_P31ADj-CB3RW-11" value="&lt;font color=&quot;#095c86&quot;&gt;&lt;b&gt;&amp;nbsp;5. 视图VNode渲染成真实DOM&lt;/b&gt;&lt;/font&gt;" style="rounded=1;whiteSpace=wrap;html=1;sketch=1;hachureGap=4;fontFamily=Architects Daughter;fontSource=https%3A%2F%2Ffonts.googleapis.com%2Fcss%3Ffamily%3DArchitects%2BDaughter;fontSize=14;strokeColor=#6c8ebf;fillColor=#dae8fc;align=left;" vertex="1" parent="1">
          <mxGeometry x="210" y="380" width="300" height="40" as="geometry" />
        </mxCell>
        <mxCell id="ZGJbccH_P31ADj-CB3RW-12" value="" style="shape=curlyBracket;whiteSpace=wrap;html=1;rounded=1;flipH=1;sketch=1;hachureGap=4;fontFamily=Architects Daughter;fontSource=https%3A%2F%2Ffonts.googleapis.com%2Fcss%3Ffamily%3DArchitects%2BDaughter;fontSize=20;fontColor=#095C86;strokeColor=#AF45ED;fillColor=#F694C1;" vertex="1" parent="1">
          <mxGeometry x="530" y="70" width="20" height="170" as="geometry" />
        </mxCell>
        <mxCell id="ZGJbccH_P31ADj-CB3RW-13" value="&lt;h1&gt;模板编译&lt;/h1&gt;" style="text;html=1;strokeColor=none;fillColor=none;spacing=5;spacingTop=-20;whiteSpace=wrap;overflow=hidden;rounded=0;sketch=1;hachureGap=4;fontFamily=Architects Daughter;fontSource=https%3A%2F%2Ffonts.googleapis.com%2Fcss%3Ffamily%3DArchitects%2BDaughter;fontSize=20;fontColor=#095C86;" vertex="1" parent="1">
          <mxGeometry x="560" y="120" width="190" height="60" as="geometry" />
        </mxCell>
        <mxCell id="ZGJbccH_P31ADj-CB3RW-14" value="模板编译&lt;br&gt;详解" style="rounded=0;whiteSpace=wrap;html=1;sketch=1;hachureGap=4;fontFamily=Architects Daughter;fontSource=https%3A%2F%2Ffonts.googleapis.com%2Fcss%3Ffamily%3DArchitects%2BDaughter;fontSize=20;fontColor=#095C86;strokeColor=#AF45ED;fillColor=#F694C1;" vertex="1" parent="1">
          <mxGeometry x="240" y="710" width="120" height="60" as="geometry" />
        </mxCell>
        <mxCell id="ZGJbccH_P31ADj-CB3RW-16" value="&lt;font style=&quot;font-size: 16px;&quot;&gt;baseCompile() 编译模板的入口函数&lt;/font&gt;" style="shape=ext;double=1;rounded=1;whiteSpace=wrap;html=1;sketch=1;hachureGap=4;fontFamily=Architects Daughter;fontSource=https%3A%2F%2Ffonts.googleapis.com%2Fcss%3Ffamily%3DArchitects%2BDaughter;fontSize=20;strokeColor=#666666;fillColor=#f5f5f5;fontColor=#333333;" vertex="1" parent="1">
          <mxGeometry x="160" y="800" width="266" height="45" as="geometry" />
        </mxCell>
        <mxCell id="ZGJbccH_P31ADj-CB3RW-21" value="" style="endArrow=classic;html=1;rounded=0;sketch=1;hachureGap=4;fontFamily=Architects Daughter;fontSource=https%3A%2F%2Ffonts.googleapis.com%2Fcss%3Ffamily%3DArchitects%2BDaughter;fontSize=16;fontColor=#095C86;startSize=14;endSize=14;sourcePerimeterSpacing=8;targetPerimeterSpacing=8;strokeColor=#60E696;fillColor=#F694C1;curved=1;" edge="1" parent="1">
          <mxGeometry relative="1" as="geometry">
            <mxPoint x="426" y="824.5" as="sourcePoint" />
            <mxPoint x="510" y="824.5" as="targetPoint" />
          </mxGeometry>
        </mxCell>
        <mxCell id="ZGJbccH_P31ADj-CB3RW-22" value="主要功能" style="edgeLabel;resizable=0;html=1;align=center;verticalAlign=middle;sketch=1;hachureGap=4;fontFamily=Architects Daughter;fontSource=https%3A%2F%2Ffonts.googleapis.com%2Fcss%3Ffamily%3DArchitects%2BDaughter;fontSize=16;fontColor=#095C86;strokeColor=#AF45ED;fillColor=#F694C1;" connectable="0" vertex="1" parent="ZGJbccH_P31ADj-CB3RW-21">
          <mxGeometry relative="1" as="geometry" />
        </mxCell>
        <mxCell id="ZGJbccH_P31ADj-CB3RW-23" value="" style="shape=curlyBracket;whiteSpace=wrap;html=1;rounded=1;sketch=1;hachureGap=4;fontFamily=Architects Daughter;fontSource=https%3A%2F%2Ffonts.googleapis.com%2Fcss%3Ffamily%3DArchitects%2BDaughter;fontSize=16;fontColor=#095C86;strokeColor=#AF45ED;fillColor=#F694C1;" vertex="1" parent="1">
          <mxGeometry x="510" y="637.5" width="20" height="370" as="geometry" />
        </mxCell>
        <mxCell id="ZGJbccH_P31ADj-CB3RW-26" value="1. 模板解析 parse()" style="shape=ext;double=1;rounded=0;whiteSpace=wrap;html=1;sketch=1;hachureGap=4;fontFamily=Architects Daughter;fontSource=https%3A%2F%2Ffonts.googleapis.com%2Fcss%3Ffamily%3DArchitects%2BDaughter;fontSize=16;strokeColor=#d79b00;fillColor=#ffe6cc;" vertex="1" parent="1">
          <mxGeometry x="530" y="660" width="110" height="60" as="geometry" />
        </mxCell>
        <mxCell id="ZGJbccH_P31ADj-CB3RW-27" value="2. 优化 optimize()" style="shape=ext;double=1;rounded=0;whiteSpace=wrap;html=1;sketch=1;hachureGap=4;fontFamily=Architects Daughter;fontSource=https%3A%2F%2Ffonts.googleapis.com%2Fcss%3Ffamily%3DArchitects%2BDaughter;fontSize=16;strokeColor=#d79b00;fillColor=#ffe6cc;" vertex="1" parent="1">
          <mxGeometry x="530" y="790" width="110" height="50" as="geometry" />
        </mxCell>
        <mxCell id="ZGJbccH_P31ADj-CB3RW-28" value="3. 代码生成&lt;br&gt;generate()" style="shape=ext;double=1;rounded=0;whiteSpace=wrap;html=1;sketch=1;hachureGap=4;fontFamily=Architects Daughter;fontSource=https%3A%2F%2Ffonts.googleapis.com%2Fcss%3Ffamily%3DArchitects%2BDaughter;fontSize=16;strokeColor=#d79b00;fillColor=#ffe6cc;" vertex="1" parent="1">
          <mxGeometry x="530" y="910" width="110" height="48.75" as="geometry" />
        </mxCell>
        <mxCell id="ZGJbccH_P31ADj-CB3RW-29" value="&lt;font style=&quot;font-size: 15px;&quot;&gt;通过正则等方式提取出标签元素、属性、变量等信息，并解析成抽象语法树AST&lt;/font&gt;" style="text;html=1;strokeColor=none;fillColor=none;align=left;verticalAlign=middle;whiteSpace=wrap;rounded=0;sketch=1;hachureGap=4;fontFamily=Architects Daughter;fontSource=https%3A%2F%2Ffonts.googleapis.com%2Fcss%3Ffamily%3DArchitects%2BDaughter;fontSize=16;fontColor=#095C86;" vertex="1" parent="1">
          <mxGeometry x="660" y="685" width="250" height="25" as="geometry" />
        </mxCell>
        <mxCell id="ZGJbccH_P31ADj-CB3RW-31" value="&lt;font style=&quot;font-size: 15px;&quot;&gt;遍历AST找出其中的静态节点和静态根节点，并进行标记&lt;/font&gt;" style="text;html=1;strokeColor=none;fillColor=none;align=left;verticalAlign=middle;whiteSpace=wrap;rounded=0;sketch=1;hachureGap=4;fontFamily=Architects Daughter;fontSource=https%3A%2F%2Ffonts.googleapis.com%2Fcss%3Ffamily%3DArchitects%2BDaughter;fontSize=16;fontColor=#095C86;" vertex="1" parent="1">
          <mxGeometry x="650" y="820" width="250" height="25" as="geometry" />
        </mxCell>
        <mxCell id="ZGJbccH_P31ADj-CB3RW-33" value="&lt;span style=&quot;font-size: 15px;&quot;&gt;根据AST生成渲染函数render&lt;/span&gt;" style="text;html=1;strokeColor=none;fillColor=none;align=left;verticalAlign=middle;whiteSpace=wrap;rounded=0;sketch=1;hachureGap=4;fontFamily=Architects Daughter;fontSource=https%3A%2F%2Ffonts.googleapis.com%2Fcss%3Ffamily%3DArchitects%2BDaughter;fontSize=16;fontColor=#095C86;" vertex="1" parent="1">
          <mxGeometry x="650" y="933.75" width="250" height="25" as="geometry" />
        </mxCell>
        <mxCell id="ZGJbccH_P31ADj-CB3RW-37" value="&lt;span style=&quot;color: rgb(0, 0, 0); font-family: &amp;quot;Architects Daughter&amp;quot;; font-size: 15px; font-style: normal; font-variant-ligatures: normal; font-variant-caps: normal; font-weight: 700; letter-spacing: normal; orphans: 2; text-align: left; text-indent: 0px; text-transform: none; widows: 2; word-spacing: 0px; -webkit-text-stroke-width: 0px; background-color: rgb(248, 249, 250); text-decoration-thickness: initial; text-decoration-style: initial; text-decoration-color: initial; float: none; display: inline !important;&quot;&gt;返回值中的ast字段&lt;/span&gt;" style="text;html=1;strokeColor=none;fillColor=none;align=center;verticalAlign=middle;whiteSpace=wrap;rounded=0;sketch=1;hachureGap=4;fontFamily=Architects Daughter;fontSource=https%3A%2F%2Ffonts.googleapis.com%2Fcss%3Ffamily%3DArchitects%2BDaughter;fontSize=15;fontColor=#095C86;" vertex="1" parent="1">
          <mxGeometry x="570" y="610" width="80" height="30" as="geometry" />
        </mxCell>
        <mxCell id="ZGJbccH_P31ADj-CB3RW-38" value="" style="endArrow=classic;html=1;rounded=0;sketch=1;hachureGap=4;fontFamily=Architects Daughter;fontSource=https%3A%2F%2Ffonts.googleapis.com%2Fcss%3Ffamily%3DArchitects%2BDaughter;fontSize=15;fontColor=#095C86;startSize=14;endSize=14;sourcePerimeterSpacing=8;targetPerimeterSpacing=8;strokeColor=#60E696;fillColor=#F694C1;curved=1;" edge="1" parent="1">
          <mxGeometry width="50" height="50" relative="1" as="geometry">
            <mxPoint x="595" y="660" as="sourcePoint" />
            <mxPoint x="620" y="640" as="targetPoint" />
          </mxGeometry>
        </mxCell>
        <mxCell id="ZGJbccH_P31ADj-CB3RW-39" value="&lt;span style=&quot;color: rgb(0, 0, 0); font-family: &amp;quot;Architects Daughter&amp;quot;; font-size: 15px; font-style: normal; font-variant-ligatures: normal; font-variant-caps: normal; font-weight: 700; letter-spacing: normal; orphans: 2; text-align: left; text-indent: 0px; text-transform: none; widows: 2; word-spacing: 0px; -webkit-text-stroke-width: 0px; background-color: rgb(248, 249, 250); text-decoration-thickness: initial; text-decoration-style: initial; text-decoration-color: initial; float: none; display: inline !important;&quot;&gt;返回值中的static字段&lt;/span&gt;" style="text;html=1;strokeColor=none;fillColor=none;align=center;verticalAlign=middle;whiteSpace=wrap;rounded=0;sketch=1;hachureGap=4;fontFamily=Architects Daughter;fontSource=https%3A%2F%2Ffonts.googleapis.com%2Fcss%3Ffamily%3DArchitects%2BDaughter;fontSize=15;fontColor=#095C86;" vertex="1" parent="1">
          <mxGeometry x="660" y="780" width="160" height="30" as="geometry" />
        </mxCell>
        <mxCell id="ZGJbccH_P31ADj-CB3RW-41" value="" style="endArrow=classic;html=1;rounded=0;sketch=1;hachureGap=4;fontFamily=Architects Daughter;fontSource=https%3A%2F%2Ffonts.googleapis.com%2Fcss%3Ffamily%3DArchitects%2BDaughter;fontSize=15;fontColor=#095C86;startSize=14;endSize=14;sourcePerimeterSpacing=8;targetPerimeterSpacing=8;strokeColor=#60E696;fillColor=#F694C1;curved=1;" edge="1" parent="1">
          <mxGeometry width="50" height="50" relative="1" as="geometry">
            <mxPoint x="630" y="812.5" as="sourcePoint" />
            <mxPoint x="660" y="792.5" as="targetPoint" />
          </mxGeometry>
        </mxCell>
        <mxCell id="ZGJbccH_P31ADj-CB3RW-42" value="&lt;font color=&quot;#000000&quot;&gt;返回值中的render字段&lt;/font&gt;" style="text;html=1;strokeColor=none;fillColor=none;align=center;verticalAlign=middle;whiteSpace=wrap;rounded=0;sketch=1;hachureGap=4;fontFamily=Architects Daughter;fontSource=https%3A%2F%2Ffonts.googleapis.com%2Fcss%3Ffamily%3DArchitects%2BDaughter;fontSize=15;fontColor=#095C86;" vertex="1" parent="1">
          <mxGeometry x="605" y="970" width="165" height="30" as="geometry" />
        </mxCell>
        <mxCell id="ZGJbccH_P31ADj-CB3RW-43" value="" style="endArrow=classic;html=1;rounded=0;sketch=1;hachureGap=4;fontFamily=Architects Daughter;fontSource=https%3A%2F%2Ffonts.googleapis.com%2Fcss%3Ffamily%3DArchitects%2BDaughter;fontSize=15;fontColor=#000000;startSize=14;endSize=14;sourcePerimeterSpacing=8;targetPerimeterSpacing=8;strokeColor=#60E696;fillColor=#F694C1;curved=1;" edge="1" parent="1">
          <mxGeometry width="50" height="50" relative="1" as="geometry">
            <mxPoint x="640" y="946.88" as="sourcePoint" />
            <mxPoint x="650" y="976.88" as="targetPoint" />
          </mxGeometry>
        </mxCell>
        <mxCell id="ZGJbccH_P31ADj-CB3RW-44" value="" style="ellipse;shape=cloud;whiteSpace=wrap;html=1;sketch=1;hachureGap=4;fontFamily=Architects Daughter;fontSource=https%3A%2F%2Ffonts.googleapis.com%2Fcss%3Ffamily%3DArchitects%2BDaughter;fontSize=15;fontColor=#000000;strokeColor=#AF45ED;fillColor=#F694C1;" vertex="1" parent="1">
          <mxGeometry x="615" y="370" width="120" height="80" as="geometry" />
        </mxCell>
        <mxCell id="ZGJbccH_P31ADj-CB3RW-55" value="" style="edgeStyle=orthogonalEdgeStyle;curved=1;rounded=0;sketch=1;hachureGap=4;orthogonalLoop=1;jettySize=auto;html=1;fontFamily=Architects Daughter;fontSource=https%3A%2F%2Ffonts.googleapis.com%2Fcss%3Ffamily%3DArchitects%2BDaughter;fontSize=15;fontColor=#000000;endArrow=open;startSize=14;endSize=14;sourcePerimeterSpacing=8;targetPerimeterSpacing=8;strokeColor=#60E696;fillColor=#F694C1;" edge="1" parent="1" source="ZGJbccH_P31ADj-CB3RW-52" target="ZGJbccH_P31ADj-CB3RW-53">
          <mxGeometry relative="1" as="geometry" />
        </mxCell>
        <mxCell id="ZGJbccH_P31ADj-CB3RW-52" value="核心：调用parseHTML函数对开始标签、结束标签、文本、注释进行分别处理" style="label;whiteSpace=wrap;html=1;image=img/clipart/Gear_128x128.png;sketch=1;hachureGap=4;fontFamily=Architects Daughter;fontSource=https%3A%2F%2Ffonts.googleapis.com%2Fcss%3Ffamily%3DArchitects%2BDaughter;fontSize=15;strokeColor=#6c8ebf;fillColor=#dae8fc;" vertex="1" parent="1">
          <mxGeometry x="670" y="620" width="360" height="40" as="geometry" />
        </mxCell>
        <mxCell id="ZGJbccH_P31ADj-CB3RW-53" value="解析文本时会根据不同的&lt;br&gt;类型节点加不同的type" style="ellipse;shape=cloud;whiteSpace=wrap;html=1;sketch=1;hachureGap=4;fontFamily=Architects Daughter;fontSource=https%3A%2F%2Ffonts.googleapis.com%2Fcss%3Ffamily%3DArchitects%2BDaughter;fontSize=15;fontColor=#000000;strokeColor=#AF45ED;fillColor=#F694C1;" vertex="1" parent="1">
          <mxGeometry x="827" y="510" width="240" height="90" as="geometry" />
        </mxCell>
        <mxCell id="ZGJbccH_P31ADj-CB3RW-54" value="" style="endArrow=classic;html=1;rounded=0;sketch=1;hachureGap=4;fontFamily=Architects Daughter;fontSource=https%3A%2F%2Ffonts.googleapis.com%2Fcss%3Ffamily%3DArchitects%2BDaughter;fontSize=15;fontColor=#000000;startSize=14;endSize=14;sourcePerimeterSpacing=8;targetPerimeterSpacing=8;strokeColor=#994C00;fillColor=#F694C1;curved=1;entryX=0.169;entryY=0.799;entryDx=0;entryDy=0;entryPerimeter=0;" edge="1" parent="1" target="ZGJbccH_P31ADj-CB3RW-53">
          <mxGeometry width="50" height="50" relative="1" as="geometry">
            <mxPoint x="810" y="640" as="sourcePoint" />
            <mxPoint x="860" y="590" as="targetPoint" />
            <Array as="points">
              <mxPoint x="840" y="610" />
            </Array>
          </mxGeometry>
        </mxCell>
        <mxCell id="ZGJbccH_P31ADj-CB3RW-56" value="核心：标记静态节点和静态根节点" style="label;whiteSpace=wrap;html=1;image=img/clipart/Gear_128x128.png;sketch=1;hachureGap=4;fontFamily=Architects Daughter;fontSource=https%3A%2F%2Ffonts.googleapis.com%2Fcss%3Ffamily%3DArchitects%2BDaughter;fontSize=15;strokeColor=#6c8ebf;fillColor=#dae8fc;" vertex="1" parent="1">
          <mxGeometry x="840" y="760" width="263" height="40" as="geometry" />
        </mxCell>
      </root>
    </mxGraphModel>
  </diagram>
</mxfile>
